<?xml version="1.0" encoding="UTF-8"?>
<svg width="1996px" height="713px" viewBox="0 0 1996 713" version="1.1" xmlns="http://www.w3.org/2000/svg" xmlns:xlink="http://www.w3.org/1999/xlink">
    <!-- Generator: Sketch 54.1 (76490) - https://sketchapp.com -->
    <title>webauthn-6</title>
    <desc>Created with Sketch.</desc>
    <g id="Page-1" stroke="none" stroke-width="1" fill="none" fill-rule="evenodd">
        <g id="USB" transform="translate(-7.000000, 100.000000)">
            <rect id="Rectangle" fill="#99C794" x="0" y="0" width="299" height="140" rx="10"></rect>
            <rect id="Rectangle" fill="#99C794" x="272" y="41" width="82" height="60" rx="10"></rect>
            <circle id="Oval" fill="#6699CC" cx="58" cy="70" r="31"></circle>
            <rect id="Rectangle" fill="#6699CC" x="300" y="58" width="29" height="2"></rect>
            <rect id="Rectangle" fill="#6699CC" x="300" y="71" width="29" height="2"></rect>
            <rect id="Rectangle" fill="#6699CC" x="300" y="85" width="29" height="2"></rect>
            <rect id="Rectangle" fill="#6699CC" x="300" y="64" width="18" height="2"></rect>
            <rect id="Rectangle" fill="#6699CC" x="300" y="78" width="18" height="2"></rect>
            <rect id="Rectangle" fill-opacity="0.2" fill="#000000" x="299" y="41" width="1" height="60"></rect>
        </g>
        <path id="Line" d="M434.137248,166 L662.305654,166 L662.305654,148 L706.305654,170 L662.305654,192 L662.305654,174 L434.137248,174 C432.256222,184.240472 423.284279,192 412.5,192 C400.349736,192 390.5,182.150264 390.5,170 C390.5,157.849736 400.349736,148 412.5,148 C423.284279,148 432.256222,155.759528 434.137248,166 Z" fill="#6699CC" fill-rule="nonzero"></path>
        <path id="Line" d="M1276.13725,166 L1504.30565,166 L1504.30565,148 L1548.30565,170 L1504.30565,192 L1504.30565,174 L1276.13725,174 C1274.25622,184.240472 1265.28428,192 1254.5,192 C1242.34974,192 1232.5,182.150264 1232.5,170 C1232.5,157.849736 1242.34974,148 1254.5,148 C1265.28428,148 1274.25622,155.759528 1276.13725,166 Z" fill="#6699CC" fill-rule="nonzero"></path>
        <text id="{-Signed-challenge-P" font-family="AnonymicePowerline-Bold, Anonymous Pro for Powerline" font-size="60" font-weight="bold" fill="#6699CC">
            <tspan x="1225" y="453">{</tspan>
            <tspan x="1225" y="525">Signed challenge</tspan>
            <tspan x="1225" y="597">Public key</tspan>
            <tspan x="1225" y="669">}</tspan>
        </text>
        <g id="Browser" transform="translate(798.000000, 0.000000)">
            <rect id="Rectangle" fill="#99C794" x="0" y="0" width="400" height="340" rx="10"></rect>
            <rect id="Rectangle" fill-opacity="0.1" fill="#000000" x="0" y="0" width="400" height="51" rx="10"></rect>
            <rect id="Rectangle" fill="#89B284" x="0" y="26" width="400" height="26"></rect>
            <path d="M355,15 L379.374957,39.3749567" id="Path" stroke="#6699CC" stroke-width="5"></path>
            <path d="M355,15 L379.374957,39.3749567" id="Path" stroke="#6699CC" stroke-width="5" transform="translate(367.187478, 27.187478) rotate(-270.000000) translate(-367.187478, -27.187478) "></path>
        </g>
        <g id="server" transform="translate(1589.000000, 0.000000)">
            <rect id="Rectangle" fill="#99C794" x="0" y="0" width="400" height="100" rx="10"></rect>
            <rect id="Rectangle" fill="#99C794" x="0" y="120" width="400" height="100" rx="10"></rect>
            <rect id="Rectangle" fill="#99C794" x="0" y="240" width="400" height="100" rx="10"></rect>
            <circle id="Oval" fill="#6699CC" cx="331" cy="50" r="20"></circle>
            <circle id="Oval" fill-opacity="0.2" fill="#000000" cx="331" cy="170" r="20"></circle>
            <circle id="Oval" fill-opacity="0.2" fill="#000000" cx="331" cy="290" r="20"></circle>
        </g>
    </g>
</svg>
