<?xml version="1.0" encoding="UTF-8"?>
<svg width="1996px" height="582px" viewBox="0 0 1996 582" version="1.1" xmlns="http://www.w3.org/2000/svg" xmlns:xlink="http://www.w3.org/1999/xlink">
    <!-- Generator: Sketch 54.1 (76490) - https://sketchapp.com -->
    <title>webauthn-1</title>
    <desc>Created with Sketch.</desc>
    <defs>
        <circle id="path-1" cx="170" cy="170" r="170"></circle>
    </defs>
    <g id="Page-1" stroke="none" stroke-width="1" fill="none" fill-rule="evenodd">
        <g id="User" transform="translate(0.000000, 242.000000)">
            <mask id="mask-2" fill="white">
                <use xlink:href="#path-1"></use>
            </mask>
            <use id="Oval" fill="#99C794" xlink:href="#path-1"></use>
            <circle id="Oval" fill="#6699CC" mask="url(#mask-2)" cx="170.5" cy="293.5" r="107.5"></circle>
            <circle id="Oval" fill="#6699CC" mask="url(#mask-2)" cx="170.5" cy="151.5" r="67.5"></circle>
        </g>
        <g id="server" transform="translate(1596.000000, 242.000000)">
            <rect id="Rectangle" fill="#99C794" x="0" y="0" width="400" height="100" rx="10"></rect>
            <rect id="Rectangle" fill="#99C794" x="0" y="120" width="400" height="100" rx="10"></rect>
            <rect id="Rectangle" fill="#99C794" x="0" y="240" width="400" height="100" rx="10"></rect>
            <circle id="Oval" fill="#6699CC" cx="331" cy="50" r="20"></circle>
            <circle id="Oval" fill-opacity="0.2" fill="#000000" cx="331" cy="170" r="20"></circle>
            <circle id="Oval" fill-opacity="0.2" fill="#000000" cx="331" cy="290" r="20"></circle>
        </g>
        <g id="Browser" transform="translate(805.000000, 242.000000)">
            <rect id="Rectangle" fill="#99C794" x="0" y="0" width="400" height="340" rx="10"></rect>
            <rect id="Rectangle" fill-opacity="0.1" fill="#000000" x="0" y="0" width="400" height="51" rx="10"></rect>
            <rect id="Rectangle" fill="#89B284" x="0" y="26" width="400" height="26"></rect>
            <path d="M355,15 L379.374957,39.3749567" id="Path" stroke="#6699CC" stroke-width="5"></path>
            <path d="M355,15 L379.374957,39.3749567" id="Path" stroke="#6699CC" stroke-width="5" transform="translate(367.187478, 27.187478) rotate(-270.000000) translate(-367.187478, -27.187478) "></path>
        </g>
        <path id="Line" d="M441.137248,408 L669.305654,408 L669.305654,390 L713.305654,412 L669.305654,434 L669.305654,416 L441.137248,416 C439.256222,426.240472 430.284279,434 419.5,434 C407.349736,434 397.5,424.150264 397.5,412 C397.5,399.849736 407.349736,390 419.5,390 C430.284279,390 439.256222,397.759528 441.137248,408 Z" fill="#6699CC" fill-rule="nonzero"></path>
        <path id="Line" d="M1268.13725,408 L1496.30565,408 L1496.30565,390 L1540.30565,412 L1496.30565,434 L1496.30565,416 L1268.13725,416 C1266.25622,426.240472 1257.28428,434 1246.5,434 C1234.34974,434 1224.5,424.150264 1224.5,412 C1224.5,399.849736 1234.34974,390 1246.5,390 C1257.28428,390 1266.25622,397.759528 1268.13725,408 Z" fill="#6699CC" fill-rule="nonzero"></path>
        <text id="authentication-reque" font-family="AnonymicePowerline-Bold, Anonymous Pro for Powerline" font-size="100" font-weight="bold" fill="#6699CC">
            <tspan x="420" y="102">authentication request</tspan>
        </text>
        <text id="{username}" font-family="AnonymicePowerline-Bold, Anonymous Pro for Powerline" font-size="60" font-weight="bold" fill="#6699CC">
            <tspan x="386" y="531">{username}</tspan>
        </text>
    </g>
</svg>