<?xml version="1.0" encoding="UTF-8"?>
<svg width="1996px" height="778px" viewBox="0 0 1996 778" version="1.1" xmlns="http://www.w3.org/2000/svg" xmlns:xlink="http://www.w3.org/1999/xlink">
    <!-- Generator: Sketch 62 (91390) - https://sketch.com -->
    <title>webauthn-6</title>
    <desc>Created with Sketch.</desc>
    <g id="Page-1" stroke="none" stroke-width="1" fill="none" fill-rule="evenodd">
        <g id="USB" transform="translate(-7.000000, 100.000000)">
            <rect id="Rectangle" fill="#99C794" x="0" y="0" width="299" height="140" rx="10"></rect>
            <rect id="Rectangle" fill="#99C794" x="272" y="41" width="82" height="60" rx="10"></rect>
            <circle id="Oval" fill="#6699CC" cx="58" cy="70" r="31"></circle>
            <rect id="Rectangle" fill="#6699CC" x="300" y="58" width="29" height="2"></rect>
            <rect id="Rectangle" fill="#6699CC" x="300" y="71" width="29" height="2"></rect>
            <rect id="Rectangle" fill="#6699CC" x="300" y="85" width="29" height="2"></rect>
            <rect id="Rectangle" fill="#6699CC" x="300" y="64" width="18" height="2"></rect>
            <rect id="Rectangle" fill="#6699CC" x="300" y="78" width="18" height="2"></rect>
            <rect id="Rectangle" fill-opacity="0.2" fill="#000000" x="299" y="41" width="1" height="60"></rect>
        </g>
        <path id="Line" d="M662.305654,148 L706.305654,170 L662.305654,192 L662.305,174 L434.137181,174.00036 C432.277207,184.125279 423.48542,191.824839 412.86381,191.997053 L412.5,192 C400.349736,192 390.5,182.150264 390.5,170 C390.5,157.849736 400.349736,148 412.5,148 C423.284504,148 432.256598,155.759853 434.137366,166.000643 L662.305,166 L662.305654,148 Z" fill="#6699CC" fill-rule="nonzero"></path>
        <path id="Line" d="M1504.30565,148 L1548.30565,170 L1504.30565,192 L1504.305,174 L1276.13718,174.00036 C1274.27721,184.125279 1265.48542,191.824839 1254.86381,191.997053 L1254.5,192 C1242.34974,192 1232.5,182.150264 1232.5,170 C1232.5,157.849736 1242.34974,148 1254.5,148 C1265.2845,148 1274.2566,155.759853 1276.13737,166.000643 L1504.305,166 L1504.30565,148 Z" fill="#6699CC" fill-rule="nonzero"></path>
        <text id="{-Signed-challenge-P" font-family="AnonymicePowerline-Bold, Anonymous Pro for Powerline" font-size="60" font-weight="bold" fill="#6699CC">
            <tspan x="1225" y="453">{</tspan>
            <tspan x="1225" y="525">  Signed challenge</tspan>
            <tspan x="1225" y="597">  Public key</tspan>
            <tspan x="1225" y="669">  Private Key ID</tspan>
            <tspan x="1225" y="741">}</tspan>
        </text>
        <g id="Browser" transform="translate(798.000000, 0.000000)">
            <rect id="Rectangle" fill="#99C794" x="0" y="0" width="400" height="340" rx="10"></rect>
            <rect id="Rectangle" fill-opacity="0.1" fill="#000000" x="0" y="0" width="400" height="51" rx="10"></rect>
            <rect id="Rectangle" fill="#89B284" x="0" y="26" width="400" height="26"></rect>
            <line x1="355" y1="15" x2="379.374957" y2="39.3749567" id="Path" stroke="#6699CC" stroke-width="5"></line>
            <line x1="355" y1="15" x2="379.374957" y2="39.3749567" id="Path" stroke="#6699CC" stroke-width="5" transform="translate(367.187478, 27.187478) rotate(-270.000000) translate(-367.187478, -27.187478) "></line>
        </g>
        <g id="server" transform="translate(1589.000000, 0.000000)">
            <rect id="Rectangle" fill="#99C794" x="0" y="0" width="400" height="100" rx="10"></rect>
            <rect id="Rectangle" fill="#99C794" x="0" y="120" width="400" height="100" rx="10"></rect>
            <rect id="Rectangle" fill="#99C794" x="0" y="240" width="400" height="100" rx="10"></rect>
            <circle id="Oval" fill="#6699CC" cx="331" cy="50" r="20"></circle>
            <circle id="Oval" fill-opacity="0.2" fill="#000000" cx="331" cy="170" r="20"></circle>
            <circle id="Oval" fill-opacity="0.2" fill="#000000" cx="331" cy="290" r="20"></circle>
        </g>
    </g>
</svg>